<svg width="645" height="605" viewBox="0 0 645 605" fill="none" xmlns="http://www.w3.org/2000/svg">
<g clip-path="url(#clip0_36_231)">
<path d="M-0.000488281 0H644.999V605H-0.000488281V0Z" fill="#1F1F1F"/>
<path d="M302.171 25.2888C302.241 25.2809 302.311 25.2731 302.38 25.2651C373.677 21.5847 442.709 44.4081 496.759 90.8451C609.219 187.464 622.876 359.617 523.436 471.504C474.449 527.539 404.84 561.405 330.452 565.393C320.609 565.765 306.517 565.858 296.779 565.185C236.526 560.981 179.325 537.132 133.971 497.307C80.1759 451.12 47.0922 385.387 42.0749 314.726C37.1737 241.897 59.3211 172.808 107.701 117.731C147.909 72.2305 202.142 41.3865 261.848 30.0638C275.924 27.3547 287.959 26.234 302.171 25.2888Z" fill="white"/>
<path d="M184.295 174.576C190.138 174.286 196.925 174.45 202.873 174.454L234.18 174.462L330.973 174.465L407.438 174.453L432.283 174.439C438.623 174.438 448.116 173.141 452.904 177.499C455.129 179.524 456.444 183.171 456.421 186.149C456.37 192.885 456.376 199.617 456.408 206.353C456.265 212.263 456.798 218.281 456.075 224.15C455.62 227.851 451.816 231.869 448.153 232.398C444.444 232.933 440.241 232.728 436.473 232.714L418.119 232.671L350.329 232.662L350.332 322.407L350.307 351.193C350.304 356.955 350.12 362.949 350.59 368.683C351.85 384.043 362.585 395.444 376.79 400.4C380.829 401.682 381.757 401.385 385.797 401.871C392.158 402.637 403.864 400.145 408.611 404.2C409.87 405.276 410.902 407.747 411.018 409.276C411.371 413.905 411.029 418.943 411.03 423.596C411.03 430.829 411.121 437.996 411.145 445.212C411.156 448.285 411.197 451.898 408.754 454.098C405.842 456.719 401.63 457.036 398.067 458.101C386.855 461.455 378.226 463.062 366.426 462.973C343.131 462.764 320.873 453.318 304.556 436.716C294.302 426.299 286.992 413.358 283.37 399.207C280.14 386.234 280.767 375.219 280.77 362.022L280.775 330.948L280.851 232.688L217.504 232.667C207.142 232.668 196.823 232.764 186.426 232.663C182.976 233.221 176.929 229.637 176.164 225.825C174.291 216.496 175.676 203.267 175.32 193.705C174.988 184.801 174.968 177.655 184.295 174.576Z" fill="#4A2CF6"/>
</g>
<defs>
<clipPath id="clip0_36_231">
<rect width="645" height="605" fill="white"/>
</clipPath>
</defs>
</svg> 